<svg xmlns="http://www.w3.org/2000/svg" version="1.1" xmlns:xlink="http://www.w3.org/1999/xlink" xmlns:svgjs="http://svgjs.dev/svgjs" width="1440" height="560" preserveAspectRatio="none" viewBox="0 0 1440 560"><g mask="url(&quot;#SvgjsMask1003&quot;)" fill="none"><rect width="1440" height="560" x="0" y="0" fill="rgba(20, 30, 70, 1)"></rect><path d="M140 70C122.89 70 107.86 101.86 101.5 140C90.36 206.86 90.32 216.72 105 280C109.57 299.68 124.8 305.93 140 305.93C150.83 305.93 154.54 295.02 157.07 280C168.54 212.06 173.55 208.32 168 140C165.02 103.32 156.14 70 140 70" stroke="rgba(187, 37, 37, 0.4)" stroke-width="2"></path><path d="M185.29 0C234.36 16.85 232.5 48.06 280 48.06C328.65 48.06 327.22 17.29 377.58 0C397.22 -6.74 398.79 0 420 0C451.82 0 452.48 -4.79 483.64 0C522.48 5.98 522.26 21.54 560 21.54C589.4 21.54 587.86 4.63 617.93 0C657.86 -6.14 658.96 0 700 0C770 0 770 0 840 0C910 0 910 0 980 0C1050 0 1050 0 1120 0C1180.15 0 1200.67 -25.48 1240.31 0C1270.67 19.52 1249.84 90 1260 90C1270.19 90 1250.4 19.67 1281 0C1320.4 -25.33 1340.5 0 1400 0C1449.59 0 1461.29 -19.89 1499.17 0C1531.29 16.86 1528.6 34.41 1540 73.5C1549.02 104.41 1540 106.75 1540 140C1540 210 1540 210 1540 280C1540 317.69 1560.99 330.02 1540 355.38C1503.06 400.02 1424.14 387.69 1424.14 420C1424.14 452.31 1503.06 439.98 1540 484.62C1560.99 509.98 1562.53 544.84 1540 560C1506.53 582.53 1467.53 583.06 1428 560C1397.53 542.22 1430.81 483.91 1400 478.33C1346.81 468.69 1325.11 497.18 1260 529.57C1243.04 538.01 1253.44 556.18 1235.86 560C1183.44 571.39 1177.93 560 1120 560C1050 560 1050 560 980 560C910 560 910 560 840 560C770 560 770 560 700 560C630 560 630 560 560 560C508.85 560 506.43 568.32 457.69 560C436.43 556.37 435.8 536.1 420 536.1C410.33 536.1 419.17 557.88 406.76 560C349.17 569.83 343.38 560 280 560C210 560 210 560 140 560C70 560 35 595 0 560C-35 525 0 490 0 420C0 350 0 350 0 280C0 210 0 210 0 140C0 70 -35 35 0 0C35 -35 70 0 140 0C162.64 0 164.36 -7.18 185.29 0" stroke="rgba(187, 37, 37, 0.4)" stroke-width="2"></path><path d="M700 181.48C670.55 181.48 658.49 229.17 657.1 280C655.23 348.43 673.15 351.49 693.49 420C694.6 423.75 696.93 424.52 700 424.52C702.52 424.52 702.97 422.77 704.67 420C747.31 350.51 789.96 345.82 788.67 280C787.62 226.56 736.33 181.48 700 181.48" stroke="rgba(187, 37, 37, 0.4)" stroke-width="2"></path><path d="M280 385C256.59 385 230.59 405.1 230.59 420C230.59 433.24 255.94 441.27 280 441.27C298.9 441.27 316.52 432.81 316.52 420C316.52 404.67 299.56 385 280 385" stroke="rgba(187, 37, 37, 0.4)" stroke-width="2"></path><path d="M85.56 0C90.09 45.33 47.7 69.11 14 140C4.92 159.11 3.6 180 0 180C-3.4 180 0 160 0 140C0 70 -26.55 43.45 0 0C16.23 -26.55 83.09 -24.67 85.56 0" stroke="rgba(187, 37, 37, 0.4)" stroke-width="2"></path><path d="M231.64 140C237.43 112.3 254.66 100.3 280 100.3C309.77 100.3 313.71 116.66 341.86 140C383.71 174.69 384.8 216.36 420 216.36C449.71 216.36 440.53 173.37 471.69 140C510.53 98.4 514.83 66.41 560 66.41C608.47 66.41 649.85 92.1 658.97 140C670.18 198.9 612.82 207.32 600.65 280C589.38 347.32 583.89 362.96 612.09 420C633.57 463.44 658.53 480.97 700 480.97C733.98 480.97 734.13 452.85 763 420C804.13 373.21 788.86 343.94 840 321.7C897.36 296.76 912.26 336.66 980 325.65C1040.59 315.81 1043.56 309.57 1096.67 280C1113.56 270.59 1105.56 247.69 1120 247.69C1140.56 247.69 1166.67 265.5 1166.67 280C1166.67 293.32 1133.57 282.75 1120 303.33C1087.41 352.75 1075.55 360.67 1074.35 420C1072.95 489.01 1139.32 523.64 1114.81 560C1092.14 593.64 1047.4 560 980 560C910 560 910 560 840 560C770 560 770 560 700 560C640.24 560 631.86 574.01 580.49 560C561.86 554.92 577.36 533.64 560 521.82C497.11 479 486.31 491.07 420 450.73C402.62 440.16 407.23 434.48 392.61 420C337.23 365.15 337.03 365.24 280 312.08C261.94 295.24 248.73 302.39 242.44 280C224.55 216.35 218.65 202.15 231.64 140" stroke="rgba(187, 37, 37, 0.4)" stroke-width="2"></path><path d="M791.54 140C759.71 74.88 730.07 42.55 744.8 0C754.3 -27.45 792.4 0 840 0C910 0 910 0 980 0C1050 0 1050 0 1120 0C1152.82 0 1185.63 -18.19 1185.63 0C1185.63 34.31 1165.04 98.43 1120 105C1062.23 113.43 1041.9 20.95 980 30C922.23 38.45 928.59 83.58 880.65 140C858.59 165.97 861.5 194.78 840 194.78C816.95 194.78 807.31 172.27 791.54 140" stroke="rgba(187, 37, 37, 0.4)" stroke-width="2"></path><path d="M1310 140C1325.14 70.1 1307.73 49.15 1339.33 0C1352.73 -20.85 1369.66 0 1400 0C1425.28 0 1435.89 -17.11 1450.56 0C1495.89 52.89 1492.24 67.57 1520 140C1536.96 184.24 1533.28 186.32 1540 233.33C1543.28 256.32 1540 256.66 1540 280C1540 284.04 1543.3 285.9 1540 288.08C1473.3 332.17 1467.59 374.63 1400 372.54C1336.92 370.59 1301.86 339.93 1278.67 280C1256.86 223.66 1294.81 210.1 1310 140" stroke="rgba(187, 37, 37, 0.4)" stroke-width="2"></path><path d="M30 560C30 523.03 74.13 456.41 140 436.8C199.13 419.2 216.73 450.05 280 485.57C326.46 511.65 359.46 538.49 359.46 560C359.46 575.7 319.73 560 280 560C210 560 210 560 140 560C85 560 30 584.63 30 560" stroke="rgba(187, 37, 37, 0.4)" stroke-width="2"></path><path d="M1528 560C1528 557.79 1536.15 551.92 1540 551.92C1542.15 551.92 1542.41 558.37 1540 560C1536.41 562.41 1528 561.83 1528 560" stroke="rgba(187, 37, 37, 0.4)" stroke-width="2"></path><path d="M525.54 140C525.54 120.91 542.37 111.28 560 111.28C578.91 111.28 598.62 120.15 598.62 140C598.62 183.21 578.4 237.39 560 237.39C541.86 237.39 525.54 183.96 525.54 140" stroke="rgba(187, 37, 37, 0.4)" stroke-width="2"></path><path d="M1120 17.5C1107.52 17.5 1090.83 4.71 1090.83 0C1090.83 -4.04 1105.41 0 1120 0C1125.47 0 1130.94 -3.03 1130.94 0C1130.94 5.72 1127.57 17.5 1120 17.5" stroke="rgba(187, 37, 37, 0.4)" stroke-width="2"></path><path d="M1372.5 140C1382.86 69.67 1384.14 68.87 1397.67 0C1397.89 -1.13 1398.84 0 1400 0C1400.97 0 1401.7 -0.93 1401.94 0C1420.03 69.07 1423.4 69.23 1436.67 140C1449.65 209.23 1467.07 220.35 1454.44 280C1448.73 306.96 1426.36 313.22 1400 313.22C1377.36 313.22 1360.29 304.24 1356.44 280C1346.54 217.63 1362.24 209.67 1372.5 140" stroke="rgba(187, 37, 37, 0.4)" stroke-width="2"></path><path d="M821.33 420C831.97 409.26 825.9 397.79 840 396.17C905.24 388.66 913.18 391.68 980 401.74C992.31 403.59 997.86 407.72 998.26 420C1000.45 486.85 993.99 492.49 985.19 560C984.86 562.49 982.6 560 980 560C910 560 910 560 840 560C770 560 770 560 700 560C682.92 560 665.85 565.13 665.85 560C665.85 553.84 684.83 551.08 700 537.42C762.57 481.08 761.97 479.89 821.33 420" stroke="rgba(187, 37, 37, 0.4)" stroke-width="2"></path><path d="M161 560C161 552.35 224.39 529.87 280 529.87C299.97 529.87 312.16 551.29 312.16 560C312.16 566.36 296.08 560 280 560C220.5 560 161 567.42 161 560" stroke="rgba(187, 37, 37, 0.4)" stroke-width="2"></path></g><defs><mask id="SvgjsMask1003"><rect width="1440" height="560" fill="#ffffff"></rect></mask></defs></svg>